{"title":"Giddh - The Vulture (1984) DvDrip 2CD Esub ~ Drama ~[RdY] ","uid":6473610,"size":1471135321,"categoryP":"video","categoryS":"movies","magnet":"?xt=urn:btih:3672a1db1a3deb9ad3118ca87ac20244c41715da&amp;dn=Giddh+-+The+Vulture+%281984%29+DvDrip+2CD+Esub+%7E+Drama+%7E%5BRdY%5D+&amp;tr=udp%3A%2F%2Ftracker.openbittorrent.com%3A80&amp;tr=udp%3A%2F%2Fopen.demonii.com%3A1337&amp;tr=udp%3A%2F%2Ftracker.coppersurfer.tk%3A6969&amp;tr=udp%3A%2F%2Fexodus.desync.com%3A6969","seeders":0,"leechers":1,"uploader":"ilyas2000pk","files":-1,"time":1308231775,"description":"Complete name                    : Giddh - The Vulture (1984) DvDrip 2CD Esub ~ Drama ~[RdY]\nFormat                           : AVI\nFormat/Info                      : Audio Video Interleave\nFile size                        : 1.37 GiB\nDuration                         : 1h 53mn\nOverall bit rate                 : 1 720 Kbps\nWriting application              : VirtualDubMod 1.5.10.3 | \n\nVideo\nID                               : 0\nFormat                           : MPEG-4 Visual\nFormat profile                   : Advanced Simple****************L5\nFormat settings, BVOP            : 2\nFormat settings, QPel            : Yes\nFormat settings, GMC             : No warppoints\nFormat settings, Matrix          : Default (MPEG)\nCodec ID                         : XVID\nCodec ID/Hint                    : XviD\nDuration                         : 1h 53mn\nBit rate                         : 1 327 Kbps\nWidth                            : 656 pixels\nHeight                           : 480 pixels\nDisplay aspect ratio             : 4:3\nFrame rate                       : 23.976 fps\nColor space                      : YUV\nChroma subsampling               : 4.2.0\nBit depth                        : 8 bits\nScan type                        : Interlaced\nScan order                       : Bottom Field First\nCompression mode                 : Lossy\nBits/(Pixel*Frame)               : 0.176\nStream size                      : 1.05 GiB (77%)\nWriting library                  : XviD 1.2.1 (UTC 2008-12-04)\n\nAudio\nID                               : 1\nFormat                           : AC-3\nFormat/Info                      : Audio Coding 3\nMode extension                   : CM (complete main)\nCodec ID                         : 2000\nDuration                         : 1h 53mn\nBit rate mode                    : Constant\nBit rate                         : 384 Kbps\nChannel(s)                       : 6 channels\nChannel positions                : Front: L C R, Side: L R, LFE\nSampling rate                    : 48.0 KHz\nBit depth                        : 16 bits\nCompression mode                 : Lossy\nStream size                      : 312 MiB (22%)\nAlignment                        : Split accross interleaves\nInterleave, duration             : 42 ms (1.00 video frame)\nInterleave, preload duration     : 500 ms\n\n\nColor\nC\n\nRelease Date\n1984\n\nGenre\nDrama\n\nProducer\nT S Ranga\n\nDirector\nT S Ranga\n\nStar Cast\nOm Puri...... Bhashya\nSmita Patil...... Ahnami\nNana Patekar...... Veerappan\nSavita Bajaj...... Sundri\nVijay Kashyap...... Katrar\nAchyut Potdar...... Desai\nM K Raina...... Masterji\n\nSingers\nIla Arun\n\nLyricist\nVasant Dev\n\nMusic Director\nB V Karanth\n","torrent":{"xt":"urn:btih:3672a1db1a3deb9ad3118ca87ac20244c41715da","amp;dn":"Giddh+-+The+Vulture+%281984%29+DvDrip+2CD+Esub+%7E+Drama+%7E%5BRdY%5D+","amp;tr":["udp%3A%2F%2Ftracker.openbittorrent.com%3A80","udp%3A%2F%2Fopen.demonii.com%3A1337","udp%3A%2F%2Ftracker.coppersurfer.tk%3A6969","udp%3A%2F%2Fexodus.desync.com%3A6969"],"infoHash":"3672a1db1a3deb9ad3118ca87ac20244c41715da","infoHashBuffer":{"type":"Buffer","data":[54,114,161,219,26,61,235,154,211,17,140,168,122,194,2,68,196,23,21,218]},"announce":[],"urlList":[]}}